<svg xmlns="http://www.w3.org/2000/svg" xmlns:svg="http://www.w3.org/2000/svg" id="svg1428" width="24" height="24" fill="#000" version="1.1" viewBox="0 0 24 24"><path style="color:#000;fill:#a00;fill-opacity:1;stroke-width:.0919748;stroke-linecap:round;stroke-linejoin:round;-inkscape-stroke:none" id="rect3554" d="M 12.116784,3.40514 A 1.2747098,1.2747098 0 0 0 11.455179,3.5903463 L 4.8085864,7.6275238 A 1.2745823,1.2745823 0 0 0 4.3810494,9.3786313 1.2745823,1.2745823 0 0 0 6.1319775,9.8063489 L 12.116784,6.1710217 18.101593,9.8063489 A 1.2745823,1.2745823 0 0 0 19.85252,9.3786313 1.2745823,1.2745823 0 0 0 19.424984,7.6275238 L 12.778569,3.5903463 A 1.2747098,1.2747098 0 0 0 12.116784,3.40514 Z"/><path style="color:#000;fill:#c60000;fill-opacity:1;stroke:none;stroke-width:.0919748;stroke-linecap:round;stroke-linejoin:round;-inkscape-stroke:none" id="path9314" d="M 12.116784,8.5394415 A 1.2747098,1.2747098 0 0 0 11.455179,8.724648 l -6.6465926,4.037176 a 1.2745823,1.2745823 0 0 0 -0.427537,1.751108 1.2745823,1.2745823 0 0 0 1.7509281,0.427717 l 5.9848065,-3.635327 5.984809,3.635327 A 1.2745823,1.2745823 0 0 0 19.85252,14.512932 1.2745823,1.2745823 0 0 0 19.424984,12.761824 L 12.778569,8.724648 A 1.2747098,1.2747098 0 0 0 12.116784,8.5394415 Z"/><path style="color:#000;fill:#de0000;fill-opacity:1;stroke:none;stroke-width:.0919748;stroke-linecap:round;stroke-linejoin:round;-inkscape-stroke:none" id="path9316" d="m 12.195014,13.806679 a 1.2747098,1.2747098 0 0 0 -0.661606,0.185205 l -6.6465924,4.037177 a 1.2745823,1.2745823 0 0 0 -0.427537,1.751108 1.2745823,1.2745823 0 0 0 1.750928,0.427718 l 5.9848074,-3.635327 5.984807,3.635327 a 1.2745823,1.2745823 0 0 0 1.750928,-0.427718 1.2745823,1.2745823 0 0 0 -0.427537,-1.751108 l -6.646414,-4.037177 a 1.2747098,1.2747098 0 0 0 -0.661784,-0.185205 z"/></svg>