<svg xmlns="http://www.w3.org/2000/svg" xmlns:svg="http://www.w3.org/2000/svg" id="svg1428" width="24" height="24" fill="#000" version="1.1" viewBox="0 0 24 24"><path style="color:#000;fill:#999;fill-opacity:1;stroke-width:.0919748;stroke-linecap:round;stroke-linejoin:round;-inkscape-stroke:none" id="rect3554" d="m 12.172712,17.774352 a 1.2747098,1.2747098 0 0 0 0.661605,-0.185206 l 6.646593,-4.037178 a 1.2745823,1.2745823 0 0 0 0.427537,-1.751107 1.2745823,1.2745823 0 0 0 -1.750928,-0.427718 L 12.172712,15.00847 6.1879033,11.373143 a 1.2745823,1.2745823 0 0 0 -1.750927,0.427718 1.2745823,1.2745823 0 0 0 0.427536,1.751107 l 6.6464147,4.037178 a 1.2747098,1.2747098 0 0 0 0.661785,0.185206 z"/><path style="color:#000;fill:#b3b3b3;fill-opacity:1;stroke:none;stroke-width:.0919748;stroke-linecap:round;stroke-linejoin:round;-inkscape-stroke:none" id="path9314" d="m 12.172712,12.64005 a 1.2747098,1.2747098 0 0 0 0.661605,-0.185206 L 19.48091,8.4176679 A 1.2745823,1.2745823 0 0 0 19.908447,6.6665602 1.2745823,1.2745823 0 0 0 18.157519,6.2388432 L 12.172712,9.8741699 6.1879033,6.2388432 a 1.2745823,1.2745823 0 0 0 -1.750927,0.427717 1.2745823,1.2745823 0 0 0 0.427536,1.7511077 l 6.6464147,4.0371761 a 1.2747098,1.2747098 0 0 0 0.661785,0.185206 z"/></svg>