<svg xmlns="http://www.w3.org/2000/svg" xmlns:svg="http://www.w3.org/2000/svg" id="svg1428" width="24" height="24" fill="#000" version="1.1" viewBox="0 0 24 24"><path style="color:#000;fill:#c60000;fill-opacity:1;stroke:none;stroke-width:.0919748;stroke-linecap:round;stroke-linejoin:round;-inkscape-stroke:none" id="path9314" d="M 12.116784,6.5394415 A 1.2747098,1.2747098 0 0 0 11.455179,6.724648 l -6.6465926,4.037176 a 1.2745823,1.2745823 0 0 0 -0.427537,1.751108 1.2745823,1.2745823 0 0 0 1.7509281,0.427717 l 5.9848065,-3.635327 5.984809,3.635327 A 1.2745823,1.2745823 0 0 0 19.85252,12.512932 1.2745823,1.2745823 0 0 0 19.424984,10.761824 L 12.778569,6.724648 A 1.2747098,1.2747098 0 0 0 12.116784,6.5394415 Z"/><path style="color:#000;fill:#de0000;fill-opacity:1;stroke:none;stroke-width:.0919748;stroke-linecap:round;stroke-linejoin:round;-inkscape-stroke:none" id="path9316" d="m 12.195014,11.806679 a 1.2747098,1.2747098 0 0 0 -0.661606,0.185205 l -6.6465924,4.037177 a 1.2745823,1.2745823 0 0 0 -0.427537,1.751108 1.2745823,1.2745823 0 0 0 1.750928,0.427718 l 5.9848074,-3.635327 5.984807,3.635327 a 1.2745823,1.2745823 0 0 0 1.750928,-0.427718 1.2745823,1.2745823 0 0 0 -0.427537,-1.751108 l -6.646414,-4.037177 a 1.2747098,1.2747098 0 0 0 -0.661784,-0.185205 z"/></svg>